<svg width="102" height="103" viewBox="0 0 102 103" fill="none" xmlns="http://www.w3.org/2000/svg">
<circle cx="51" cy="51.2695" r="51" fill="#FCFCFC"/>
<path d="M48.7485 25.6425C42.2861 26.869 37.9056 33.0325 38.8745 39.5156C39.1115 41.041 39.6475 42.6077 40.369 43.8239C40.5442 44.1228 40.6885 44.3908 40.6885 44.4114C40.6885 44.4423 38.6683 44.4629 36.205 44.4629C33.1438 44.4629 31.6493 44.5041 31.4844 44.5763C31.3401 44.6381 31.1752 44.803 31.1134 44.9473C31.0412 45.1122 31 46.4418 31 49.0598V52.9249L31.2577 53.1722C31.4844 53.4093 31.5875 53.4299 32.4842 53.4299H33.4634L33.4943 55.8108C33.5252 58.1711 33.5252 58.1917 33.7726 58.3875C34.0921 58.6452 34.6486 58.6452 34.9166 58.3772C35.1125 58.1814 35.1228 58.0371 35.1228 55.8005V53.4299H50.9954H66.868V55.8005C66.868 58.0371 66.8784 58.1814 67.0742 58.3772C67.3422 58.6452 67.8987 58.6452 68.2183 58.3875C68.4656 58.1917 68.4656 58.1711 68.4965 55.8108L68.5275 53.4299H69.5066C70.4033 53.4299 70.5064 53.4093 70.7331 53.1722L70.9908 52.9249V49.0598C70.9908 46.4418 70.9496 45.1122 70.8774 44.9473C70.8156 44.803 70.6507 44.6381 70.5064 44.5763C70.3415 44.5041 68.847 44.4629 65.7858 44.4629C63.3225 44.4629 61.3023 44.4423 61.3023 44.4217C61.3023 44.3908 61.4672 44.0919 61.6631 43.7517C63.8893 39.9588 63.7347 34.8053 61.2714 31.0227C60.0758 29.1984 58.3236 27.6626 56.3138 26.6835C54.5513 25.828 53.5 25.5806 51.3046 25.5394C50.0575 25.5188 49.2638 25.5497 48.7485 25.6425ZM53.0053 27.3122C54.8811 27.6729 56.7054 28.6006 58.1278 29.9199C59.1482 30.8681 59.8078 31.7339 60.4056 32.8986C61.2714 34.5992 61.56 35.8257 61.5497 37.815C61.5394 39.0209 61.4878 39.4228 61.2611 40.2886C60.9622 41.443 60.1789 43.1127 59.5811 43.896L59.1791 44.4114L57.664 44.4423L56.1489 44.4732L56.9013 43.7208C58.6741 41.9583 59.5398 39.732 59.4058 37.2996C59.2719 34.6816 58.1175 32.5069 56.0561 30.9402C54.5925 29.8374 52.9743 29.3117 50.9954 29.3117C49.0165 29.3117 47.3983 29.8374 45.9347 30.9402C43.8733 32.5069 42.719 34.6816 42.585 37.2996C42.451 39.732 43.3168 41.9583 45.0895 43.7208L45.8419 44.4732L44.3268 44.4423L42.8117 44.4114L42.4097 43.896C41.8119 43.1127 41.0286 41.443 40.7297 40.2886C40.503 39.4228 40.4514 39.0209 40.4411 37.815C40.4308 35.9082 40.7091 34.6301 41.4924 33.0738C42.0387 31.9709 42.5128 31.301 43.4198 30.3631C45.8935 27.776 49.4597 26.6423 53.0053 27.3122ZM52.593 31.1258C54.809 31.6514 56.7157 33.4242 57.4475 35.6608C57.7052 36.4647 57.7464 36.7224 57.7361 37.7634C57.7361 38.7838 57.6949 39.0621 57.4475 39.7733C57.0662 40.8761 56.5508 41.7007 55.7366 42.5046C54.9533 43.2776 54.2112 43.7414 53.1392 44.1331C52.459 44.3805 52.2425 44.4114 50.9954 44.4114C49.7483 44.4114 49.5318 44.3805 48.8516 44.1331C47.7796 43.7414 47.0376 43.2776 46.2542 42.4943C45.4606 41.7213 44.9143 40.8349 44.5227 39.732C44.2856 39.0518 44.2547 38.7838 44.2547 37.7119C44.2547 36.6503 44.2959 36.3617 44.5433 35.6299C45.1102 33.8983 46.3985 32.4244 48.0579 31.6308C49.5834 30.8887 50.9645 30.7444 52.593 31.1258ZM69.3417 48.9464V51.7808H50.9954H32.6491V48.9464V46.112H50.9954H69.3417V48.9464Z" fill="#C0304F"/>
<path d="M50.4698 32.3935C50.2842 32.5481 50.2121 32.7233 50.1709 33.1768C50.1193 33.754 50.109 33.7643 49.7173 33.8983C48.7485 34.2281 48.2125 34.9496 48.1404 35.9803C48.0992 36.609 48.1198 36.743 48.3878 37.2378C48.563 37.5676 48.8516 37.918 49.1195 38.1138C49.5318 38.4024 49.6452 38.4334 50.614 38.4849C51.1912 38.5158 51.7684 38.5983 51.8921 38.6704C52.3765 38.9384 52.2838 39.732 51.7581 39.9279C51.6138 39.9897 50.8408 40.0309 50.0266 40.0309C48.6248 40.0309 48.5424 40.0412 48.3362 40.268C48.0579 40.5669 48.0476 41.0616 48.3053 41.3811C48.4805 41.5976 48.6145 41.6285 49.336 41.6594L50.1709 41.7007V42.216C50.1709 42.8344 50.4904 43.2261 50.9954 43.2261C51.5211 43.2261 51.82 42.8344 51.82 42.1438C51.82 41.6182 51.8406 41.577 52.057 41.577C52.3765 41.577 53.1805 41.0616 53.4381 40.6906C53.9432 39.9588 54.0153 39.0415 53.634 38.2066C53.1908 37.2584 52.325 36.8358 50.8408 36.8358C50.3048 36.8358 50.1296 36.7946 49.9647 36.6297C49.6864 36.3514 49.707 35.9494 50.0162 35.6505C50.2533 35.4031 50.3048 35.3928 51.8509 35.3928C53.3763 35.3928 53.4381 35.3825 53.6546 35.1558C53.9638 34.8259 53.9535 34.3209 53.6237 34.0014C53.4072 33.7746 53.2835 33.7437 52.593 33.7437H51.82V33.2284C51.82 32.8058 51.7684 32.6512 51.5623 32.4554C51.2634 32.1461 50.7996 32.1152 50.4698 32.3935Z" fill="#C0304F"/>
<path d="M45.3782 58.1608C42.8839 58.8823 41.3894 61.459 41.9666 64.0666C42.2655 65.4168 42.5232 65.726 46.7593 69.9622C50.3564 73.5593 50.6656 73.8376 50.9954 73.8376C51.3253 73.8376 51.6345 73.5593 55.2007 69.9931C57.3136 67.8905 59.1791 65.9528 59.344 65.7054C60.3335 64.2212 60.4263 62.0877 59.5708 60.5004C59.21 59.8511 58.2824 58.9235 57.6228 58.5627C56.2004 57.7794 54.3452 57.7691 52.8507 58.5318C52.5724 58.6761 52.0364 59.0781 51.6654 59.4182L50.9954 60.0572L50.3461 59.4388C49.3051 58.4391 48.1198 57.9546 46.7181 57.9753C46.3264 57.9753 45.7183 58.0577 45.3782 58.1608ZM47.9755 59.8305C48.4393 60.016 48.7691 60.2634 49.5834 61.0467C50.9748 62.3969 51.0161 62.3969 52.4075 61.0467C53.6546 59.8305 54.2215 59.5625 55.3759 59.6347C56.6024 59.7171 57.5919 60.3768 58.1794 61.5002C58.4267 61.964 58.4679 62.1599 58.4679 62.9123C58.4679 64.3552 58.4473 64.3861 54.4483 68.3749L50.9954 71.8277L47.5014 68.3234C43.5435 64.3449 43.5332 64.3243 43.5229 62.9638C43.5229 62.2835 43.5745 62.0362 43.7909 61.5724C44.2032 60.6963 45.0277 59.9954 45.9451 59.7068C46.4604 59.5522 47.3674 59.6141 47.9755 59.8305Z" fill="#C0304F"/>
<path d="M33.721 60.8612C33.5355 61.0674 33.5252 61.3663 33.5252 69.4572C33.5252 77.5481 33.5355 77.847 33.721 78.0531L33.9169 78.2696H50.9954H68.074L68.2698 78.0531C68.4553 77.847 68.4656 77.5481 68.4656 69.4572C68.4656 61.3663 68.4553 61.0674 68.2698 60.8612C68.0018 60.5726 67.3628 60.5623 67.0742 60.8509C66.8681 61.0571 66.8681 61.191 66.8681 68.8903V76.7236H50.9954H35.1228V68.8903C35.1228 61.191 35.1228 61.0571 34.9166 60.8509C34.628 60.5623 33.989 60.5726 33.721 60.8612Z" fill="#C0304F"/>
</svg>
