<svg width="102" height="103" viewBox="0 0 102 103" fill="none" xmlns="http://www.w3.org/2000/svg">
<circle cx="51" cy="51.2695" r="51" fill="#FCFCFC"/>
<path d="M42.9241 28.425C42.0888 28.5339 40.9085 28.9062 40.1095 29.2966C35.9601 31.3758 34.2078 36.5239 36.2053 40.7459C36.4323 41.218 36.7954 41.8536 37.0133 42.1623C37.2313 42.4619 40.1912 45.4763 43.5778 48.8538C50.4601 55.718 50.0061 55.3457 51.3226 55.3275C52.3395 55.3185 52.6392 55.1278 54.4369 53.321C55.9441 51.7865 55.9532 51.7774 55.9532 51.3779C55.9532 50.924 55.7534 50.6244 55.3358 50.47C54.8455 50.2793 54.6094 50.4428 53.0296 52.0044C51.5133 53.4935 51.5042 53.5026 51.1683 53.4481C50.8687 53.3936 50.1968 52.758 44.8944 47.4647C41.6348 44.2051 38.7838 41.2815 38.5569 40.9728C37.7034 39.8016 37.313 38.5577 37.313 37.0414C37.313 35.8883 37.4855 35.1075 37.9849 34.0906C39.5556 30.8674 43.3599 29.4146 46.6467 30.7856C47.6 31.1761 48.2175 31.6391 49.5521 32.9556C50.7506 34.136 51.0049 34.2994 51.477 34.1814C51.6313 34.1451 52.2124 33.6457 52.9116 32.9556C53.5562 32.3201 54.328 31.63 54.6185 31.4303C55.3721 30.9037 56.3436 30.5314 57.3787 30.3498C59.467 29.9957 61.6188 30.713 63.1714 32.2747C65.4867 34.5809 65.8317 38.131 64.0067 40.8548C63.8614 41.0818 62.8809 42.1259 61.8276 43.1792C60.0117 45.0132 59.93 45.1222 59.8846 45.5035C59.8392 45.8667 59.8665 45.9484 60.1116 46.2208C60.3477 46.4841 60.4475 46.5295 60.8016 46.5295H61.2193L63.1351 44.6228C65.2506 42.5164 65.6683 41.9988 66.2493 40.7549C68.6009 35.7703 65.7954 29.8958 60.4385 28.5884C59.3035 28.3069 57.5058 28.3069 56.3799 28.5793C54.6911 28.997 53.4836 29.687 52.1216 31.0308L51.2409 31.8933L50.2513 30.9491C48.8893 29.6416 47.6273 28.9334 46.0111 28.5702C45.1849 28.3796 43.7322 28.316 42.9241 28.425Z" fill="#C0304F"/>
<path d="M30.2584 44.1778C28.8693 44.5591 28.0794 45.5125 28.0067 46.8926C27.9704 47.5826 28.034 47.8822 29.4322 53.5206C30.2403 56.762 31.003 59.7491 31.1301 60.1486C31.8837 62.4639 33.636 65.0697 35.5881 66.7948C35.9785 67.1399 37.3677 68.184 38.6842 69.1192L41.063 70.8261V71.8703C41.063 72.7328 41.0903 72.978 41.2446 73.2685C41.4625 73.6953 41.8893 74.0312 42.3796 74.1674C42.888 74.3036 59.5762 74.3036 60.0846 74.1674C60.5749 74.0312 61.0016 73.6953 61.2195 73.2685C61.3739 72.978 61.4011 72.7328 61.4011 71.8703V70.8261L63.789 69.1192C65.0965 68.184 66.4857 67.1399 66.8761 66.7948C68.8282 65.0697 70.5805 62.4639 71.3341 60.1486C71.4612 59.7491 72.2239 56.762 73.032 53.5206C74.4211 47.8913 74.4938 47.5826 74.4575 46.8926C74.4302 46.3024 74.3667 46.0663 74.1578 45.6759C73.268 44.0507 71.0708 43.5785 69.609 44.6953C68.8554 45.2764 68.6829 45.6214 67.212 49.5528L65.8319 53.2664L65.3598 53.0939C64.7424 52.8487 63.6165 52.9032 63.0718 53.1847C62.4907 53.4843 55.3451 58.0785 54.7277 58.5506C53.4929 59.4949 52.3216 60.8841 51.6316 62.2188C51.4409 62.6092 51.2593 62.9179 51.2321 62.9179C51.2048 62.9179 51.0233 62.6092 50.8326 62.2188C50.1516 60.9022 48.9531 59.4767 47.7365 58.5506C47.1009 58.0694 40.0098 53.5024 39.4197 53.1937C38.8476 52.8941 37.7309 52.8487 37.1044 53.0939L36.6322 53.2664L35.2522 49.5528C33.7904 45.6305 33.6179 45.2764 32.8552 44.6953C32.1288 44.1415 31.121 43.9326 30.2584 44.1778ZM31.6113 46.2025C31.7384 46.2842 31.9109 46.4567 32.0017 46.5839C32.3013 46.9833 35.1886 54.8553 35.1523 55.1549C35.0524 55.9357 35.1341 56.7075 35.3702 57.1978C35.4973 57.4702 35.6789 57.7789 35.7697 57.8788C35.8605 57.9786 37.0317 58.932 38.3755 59.9943C40.6181 61.7648 40.8361 61.9191 41.172 61.9191C41.626 61.9191 41.8439 61.8011 42.0164 61.4652C42.1889 61.1292 42.1889 60.7388 42.0164 60.4937C41.9438 60.3938 40.8361 59.4767 39.5558 58.4689C37.0045 56.4533 36.8683 56.2898 37.059 55.6543C37.2043 55.164 37.5311 54.9098 38.0396 54.8644C38.4754 54.828 38.4754 54.828 42.3796 57.334C44.5314 58.7231 46.4653 59.9943 46.6923 60.1759C48.2449 61.4288 49.398 63.2084 49.9791 65.2604C50.1607 65.905 50.1789 66.2137 50.2061 69.1555L50.2424 72.3606H46.6197H42.9879L42.9516 71.1439C42.9243 70.0816 42.8971 69.9 42.7428 69.7275C42.6429 69.6186 41.3536 68.6652 39.8827 67.6029C37.8126 66.1229 37.0045 65.4783 36.2963 64.7792C34.8708 63.3537 33.6905 61.5378 33.064 59.8308C32.7281 58.8957 29.8953 47.4918 29.8953 47.056C29.8953 46.6383 30.1313 46.3115 30.5762 46.1117C30.9757 45.921 31.2663 45.9483 31.6113 46.2025ZM71.9061 46.1117C72.3238 46.3024 72.5689 46.6746 72.5689 47.1014C72.5689 47.51 69.718 58.9501 69.4002 59.8308C68.7737 61.5378 67.5934 63.3537 66.1679 64.7792C65.4597 65.4783 64.6516 66.1229 62.5815 67.6029C61.1106 68.6652 59.8213 69.6186 59.7214 69.7275C59.5671 69.9 59.5398 70.0816 59.5126 71.1439L59.4763 72.3606H55.8445H52.2218L52.2581 69.1555C52.2853 66.2137 52.3035 65.905 52.4851 65.2604C53.0661 63.2084 54.2192 61.4288 55.7718 60.1759C55.9988 59.9943 57.9418 58.7231 60.0846 57.3431C64.352 54.6101 64.3247 54.6192 64.9512 55.0459C65.1419 55.1731 65.3053 55.391 65.387 55.6089C65.614 56.2808 65.5051 56.417 62.9083 58.4689C61.6281 59.4767 60.5204 60.3938 60.4478 60.4937C60.2753 60.7388 60.2753 61.1292 60.4478 61.4652C60.6203 61.8011 60.8382 61.9191 61.2922 61.9191C61.6281 61.9191 61.846 61.7648 64.0887 59.9943C65.4324 58.932 66.6037 57.9786 66.6945 57.8788C66.7853 57.7789 66.9669 57.4702 67.1031 57.1978C67.3391 56.7075 67.4118 55.9721 67.3119 55.1549C67.2847 54.9642 67.7205 53.6931 68.7555 50.9329C69.5636 48.7629 70.2809 46.8835 70.3444 46.7564C70.4988 46.4658 70.8257 46.1571 71.1162 46.0391C71.434 45.912 71.4703 45.921 71.9061 46.1117Z" fill="#C0304F"/>
<path d="M57.4335 47.6825C57.2246 47.7823 56.9522 48.2635 56.9522 48.5269C56.9522 48.7902 57.2246 49.1987 57.497 49.344C57.833 49.5165 57.9873 49.5165 58.3596 49.344C59.213 48.9354 58.9225 47.5644 57.9782 47.5826C57.7876 47.5826 57.5424 47.628 57.4335 47.6825Z" fill="#C0304F"/>
</svg>
